<?xml version="1.0" encoding="UTF-8" standalone="no"?>
<svg width="489px" height="76px" viewBox="0 0 489 76" version="1.1" xmlns="http://www.w3.org/2000/svg" xmlns:xlink="http://www.w3.org/1999/xlink">
    <!-- Generator: Sketch 42 (36781) - http://www.bohemiancoding.com/sketch -->
    <title>SupimaLogo</title>
    <desc>Created with Sketch.</desc>
    <defs></defs>
    <g id="Final" stroke="none" stroke-width="1" fill="none" fill-rule="evenodd">
        <g id="SupimaLogo" fill-rule="nonzero" fill="#6A6867">
            <g id="Layer_1">
                <path d="M464.2,45 L440.3,45 L445.1,31.9 L452.1,12.8 L452.5,12.8 C452.6,12.9 454.4,18.8 459.1,31.2 L464.2,45 Z M468.5,56.8 L474.8,73.9 L489,73.9 L460.6,1.4 L444.2,1.4 L415.9,73.8 L429.7,73.8 L436,56.8 L468.5,56.8 Z M374.5,73.8 L388.1,73.8 L388.1,1.4 L372.8,1.4 L359.7,25.6 C355,34.1 352.3,39.7 352.1,39.7 L351.7,39.7 C351.6,39.7 349,34.1 344.3,25.7 L331,1.4 L314.4,1.4 L314.4,73.8 L327.6,73.8 L327.6,38.5 C327.6,31.9 327.5,20.6 327.5,20.5 L327.8,20.5 L346.7,56.3 L355.6,56.3 L374.2,21.2 L374.6,21.2 L374.5,39.2 L374.5,73.8 L374.5,73.8 Z M266.7,73.8 L280.3,73.8 L280.3,1.4 L266.7,1.4 L266.7,73.8 Z M197.3,37.5 L197.3,13.4 L209.8,13.4 C219.8,13.4 224.5,18.4 224.5,25.4 C224.5,32.6 219.6,37.4 209.8,37.4 L197.3,37.4 L197.3,37.5 Z M183.7,1.4 L183.7,73.8 L197.3,73.8 L197.3,48.8 L209.3,48.8 C227.8,48.8 238.4,39.7 238.4,25.3 C238.4,10.9 227.8,1.5 209.3,1.5 L183.7,1.5 L183.7,1.4 Z M150.4,1.4 L137,1.4 L137,42.7 C137,56.4 130.9,62.9 118.6,62.9 C106.2,62.9 100.2,56.4 100.2,42.7 L100.2,1.4 L86.4,1.4 L86.4,41.4 C86.4,64.6 98.4,75.3 118.4,75.3 C138.3,75.3 150.5,64.6 150.5,41.4 L150.5,1.4 L150.4,1.4 Z M0,55.7 C3.1,71.7 18.1,75.2 30.1,75.2 C46.4,75.2 58,68.7 58,53.7 C58,36.9 43.4,33.4 34.1,31.6 C22.6,29.4 15.3,27.8 15.3,20.3 C15.3,14 20.5,10.6 29.3,10.6 C38.6,10.6 43.7,14.5 45.3,20.8 L57.3,17.7 C54.2,6.1 44,0 28.6,0 C11.8,0 1.6,7.1 1.6,21.1 C1.6,35.3 12.5,39 21.7,41 C34.4,43.7 44.3,44.4 44.3,54.1 C44.3,61.3 38.7,64.7 30.2,64.7 C19.3,64.7 13.4,59.3 12.5,52.5 L0,55.7 Z" id="Shape"></path>
            </g>
        </g>
    </g>
</svg>