<?xml version="1.0" encoding="utf-8"?>
<!-- Generator: Adobe Illustrator 24.0.3, SVG Export Plug-In . SVG Version: 6.00 Build 0)  -->
<svg version="1.1" id="Layer_1" xmlns="http://www.w3.org/2000/svg" xmlns:xlink="http://www.w3.org/1999/xlink" x="0px" y="0px"
	 viewBox="0 0 792 612" style="enable-background:new 0 0 792 612;" xml:space="preserve">
<style type="text/css">
	.st0{fill:#686A68;}
</style>
<path class="st0" d="M685.14,324.42c-16.01-31.39-40.93-58.68-73.7-77.6c-9.76-5.64-19.82-10.24-30.06-13.97
	c1.89-10.73,2.94-21.75,2.94-33.02c0-42.39-13.96-81.51-37.53-113.03c-34.44-46.07-89.43-75.9-151.37-75.91h-0.02
	C333.48,10.9,278.5,40.73,244.05,86.8c-23.57,31.52-37.53,70.65-37.53,113.03c0,11.27,1.04,22.29,2.94,33.02
	c-10.24,3.72-20.3,8.33-30.06,13.97c-32.78,18.92-57.69,46.21-73.7,77.6c-28.14,55.17-28.71,122.95,4.52,180.54
	c16.31,28.24,38.81,50.67,64.79,66.58c57.15,35.01,131.18,38.44,193.3,2.57c9.74-5.63,18.69-12.04,27.02-19.04
	c8.34,7,17.44,13.41,27.19,19.04c62.12,35.87,136.15,32.44,193.31-2.57c25.98-15.91,48.48-38.34,64.79-66.58
	C713.85,447.37,713.28,379.58,685.14,324.42z M638.9,480.89c-12.13,21.01-28.86,37.7-48.19,49.54
	c-42.53,26.03-97.61,28.58-143.82,1.89c-1.91-1.1-3.77-2.25-5.61-3.43c-10.6-7.04-19.84-15.97-27.44-26.2
	c-6.46-8.77-13.8-20.47-18.51-33.94c-4.71,13.48-11.89,25.17-18.34,33.94c-7.59,10.23-16.82,19.16-27.42,26.2
	c-1.84,1.18-3.7,2.33-5.61,3.43c-46.22,26.69-101.3,24.14-143.83-1.89c-19.33-11.84-36.06-28.54-48.19-49.54
	c-24.75-42.86-24.32-93.33-3.38-134.38c11.92-23.36,30.45-43.66,54.82-57.73c0.77-0.45,1.56-0.86,2.34-1.29
	c12.38-6.74,26.03-10.91,40.06-12.48c5.19-0.58,11.01-0.97,17.13-0.95c0.5,0,0.99,0,1.5,0.01c0.39,0.01,0.79,0.03,1.19,0.04
	c5.97,0.16,12.23,0.73,18.56,1.92c-0.02-0.02-0.04-0.05-0.06-0.07c0.03,0.01,0.06,0.01,0.1,0.01c-4.21-4.89-7.83-10.04-10.97-15.14
	c-0.19-0.31-0.39-0.63-0.58-0.94c-0.28-0.47-0.54-0.93-0.81-1.4c-3.06-5.27-5.62-10.48-7.7-15.24c-5.63-12.89-8.84-26.74-9.21-40.79
	c-0.02-0.94-0.06-1.88-0.06-2.82c0-31.45,10.33-60.48,27.78-83.9c25.63-34.39,66.62-56.67,112.76-56.67l0,0l0,0l0,0
	c46.19,0,87.17,22.28,112.8,56.67c17.44,23.42,27.78,52.45,27.78,83.9c0,0.94-0.04,1.88-0.06,2.82c-0.38,14.04-3.58,27.9-9.21,40.79
	c-2.08,4.77-4.65,9.97-7.71,15.24c-0.27,0.47-0.53,0.93-0.81,1.4c-0.19,0.31-0.39,0.63-0.58,0.94c-3.13,5.1-6.76,10.25-10.97,15.14
	c0.03-0.01,0.06-0.01,0.1-0.01c-0.02,0.02-0.04,0.05-0.06,0.07c6.32-1.2,12.59-1.76,18.56-1.92c0.39-0.01,0.8-0.03,1.19-0.04
	c0.5-0.01,1,0,1.5-0.01c6.12-0.02,11.94,0.37,17.13,0.95c14.03,1.58,27.68,5.75,40.06,12.48c0.78,0.43,1.57,0.84,2.34,1.29
	c24.38,14.07,42.9,34.37,54.82,57.73C663.22,387.56,663.64,438.03,638.9,480.89z"/>
</svg>
